<svg xmlns="http://www.w3.org/2000/svg" xmlns:xlink="http://www.w3.org/1999/xlink" version="1.1" viewBox="328 722 64 80" x="0px" y="0px"><g><g style="" fill="rgb(0,0,0)" fill-opacity="1.0" stroke-linejoin=" miter"><path d="M370.28543,745.4945L370.28543,745.4955C370.2802,745.49536,370.27496,745.4953,370.2697,745.4953C370.23898,745.4953,370.20816,745.4977,370.17743,745.5019L369.40195,745.6086C369.1931,745.63727,369.00424,745.74786,368.87708,745.91583C368.7498,746.0839,368.69455,746.29565,368.7235,746.50446L368.83096,747.2789C368.8861,747.6762,369.22635,747.9639,369.61655,747.9639C369.65253,747.9639,369.68896,747.9615,369.72562,747.9564L370.49924,747.8499C370.93332,747.7903,371.23703,747.3905,371.1779,746.95624L371.07242,746.18164C371.04395,745.97266,370.93353,745.7836,370.76572,745.6562C370.62686,745.5508,370.45792,745.4945,370.28543,745.4945 Z M361.3908,738.0799L361.3908,738.0809C361.3902,738.0809,361.38962,738.0809,361.389,738.0809C355.9631,738.0809,351.56467,742.47974,351.56467,747.90607C351.56467,753.3329,355.96408,757.7322,361.3908,757.7322C365.5182,757.7322,369.05127,755.18744,370.50656,751.58124C370.5481,751.4936,370.5647,751.4463,370.5647,751.4463L370.81967,750.69965C370.8878,750.5,370.87375,750.28156,370.78073,750.09247C370.68774,749.90344,370.5234,749.759,370.32388,749.69104L369.58273,749.43915C369.4996,749.4108,369.41318,749.39685,369.32703,749.39685C369.2063,749.39685,369.08597,749.4243,368.97577,749.4787C368.78668,749.5721,368.64252,749.7366,368.57492,749.9363L368.32492,750.6035C367.24506,753.3774,364.54755,755.344,361.3908,755.344C357.28302,755.344,353.95285,752.01404,353.95285,747.90607C353.95285,743.798,357.28302,740.4681,361.3908,740.4681C363.67197,740.4681,365.70926,741.4911,367.07364,743.1078L367.5565,743.69556C367.71277,743.8999,367.9489,744.00726,368.18777,744.00726C368.35568,744.00726,368.52496,743.95416,368.6688,743.8445L369.28964,743.3707C369.63803,743.10504,369.70535,742.6074,369.44006,742.2587L368.88184,741.53357C367.07953,739.4171,364.38705,738.0799,361.3908,738.0799 Z M356.3215,734.20905C356.50497,734.20905,356.69077,734.2438,356.86972,734.31714L356.87265,734.3193L360.95694,736.0096L360.95663,736.0105C361.09204,736.0662,361.2251,736.0879,361.3522,736.0879C361.62207,736.0879,361.86508,735.9904,362.04654,735.9149L362.04828,735.9142C364.83322,734.736,365.83887,734.3398,365.8976,734.31665L365.89948,734.3176C366.07953,734.2462,366.26526,734.2127,366.44806,734.2127C366.64685,734.2127,366.84216,734.2523,367.02298,734.32697L367.02814,734.33026C367.37912,734.4745,367.67505,734.7541,367.83432,735.13306C367.8666,735.21,369.4906,739.1237,369.4906,739.1237C369.6036,739.3951,369.8189,739.6781,370.15762,739.81836L370.1572,739.8192L374.19208,741.4892L374.18945,741.4902L374.19238,741.4893L374.18973,741.4903C374.93326,741.815,375.28378,742.6762,374.9767,743.43195L374.97665,743.4323C374.9573,743.47974,373.31784,747.44464,373.31784,747.44464C373.19302,747.74634,373.1985,748.0728,373.31573,748.35583L373.31537,748.3567L374.97482,752.35974L374.9743,752.3606C375.2895,753.1197,374.93796,753.9887,374.18872,754.31696L374.1884,754.31775L370.17422,755.98145L370.17383,755.9823C369.88727,756.0969,369.64413,756.3241,369.5161,756.6334L369.5161,756.6344C369.43884,756.8194,367.86652,760.60846,367.84433,760.66205C367.6034,761.2443,367.04132,761.59924,366.45566,761.59924C366.27408,761.59924,366.09024,761.5651,365.913,761.4931L365.9101,761.4941L361.83978,759.8105L361.83966,759.8114C361.69656,759.7518,361.55423,759.7283,361.4178,759.7283C361.19598,759.7283,360.98987,759.79034,360.82175,759.8601L360.82138,759.861L356.89053,761.48755L356.89044,761.4877L356.89,761.4885C356.70728,761.5613,356.5184,761.5959,356.33234,761.5959C356.13235,761.5959,355.9356,761.5559,355.75327,761.48047L355.75165,761.4808C355.40152,761.33484,355.1065,761.05896,354.94522,760.684L354.94376,760.6845C354.93896,760.6685,353.2937,756.6997,353.28882,756.68805L353.28876,756.68787C353.17395,756.4113,352.9593,756.12915,352.6183,755.98804C352.59683,755.9791,348.72757,754.3807,348.60516,754.33L348.60483,754.331C347.84573,754.00616,347.4868,753.13055,347.80307,752.36646L349.45816,748.36865C349.589,748.05255,349.56882,747.71954,349.45157,747.437L349.45123,747.4378L347.79718,743.43835C347.48956,742.68304,347.83978,741.8213,348.58286,741.49316L348.5845,741.49414L352.5613,739.8424L352.56155,739.84235C352.83905,739.72705,353.12177,739.5159,353.26373,739.17267C354.8192,735.4167,354.9278,735.15497,354.9352,735.1371L354.93558,735.1371C355.1785,734.5598,355.73834,734.20905,356.3215,734.20905 Z M370.4193,760.70795L374.714,768.14655L374.714,768.14655L370.4041,767.9798L370.40045,767.9808C370.355,767.97455,370.3095,767.972,370.2642,767.972C369.85196,767.972,369.453,768.1861,369.23276,768.56305L369.2291,768.564C369.1982,768.6154,369.1712,768.67035,369.14847,768.7275L369.1448,768.72845L367.14984,772.51385L362.76813,764.92456L363.7647,763.1984L363.7647,763.1994L364.97162,763.69775L364.97223,763.6991C365.4562,763.897,365.957,763.9907,366.44968,763.9907C367.9824,763.9907,369.43616,763.0831,370.05878,761.579L370.4193,760.70795 Z M352.35953,760.70825L352.7237,761.58344C353.13583,762.5782,353.91302,763.3128,354.83508,763.69446L354.83588,763.69574C355.30554,763.88965,355.8131,763.99255,356.3296,763.99255C356.8166,763.99255,357.31152,763.90106,357.79004,763.70807L357.7927,763.70703L361.3902,762.216L361.5391,762.2776L361.5391,762.27856L355.62912,772.5139L353.63342,768.7262L353.62994,768.7272C353.60385,768.6608,353.57214,768.5984,353.5355,768.5394L353.53198,768.5404C353.30905,768.1772,352.91824,767.972,352.5147,767.972C352.4694,767.972,352.42392,767.97455,352.3785,767.9798L352.37503,767.9808L348.06552,768.1466L348.06552,768.1466L352.35953,760.70825 Z M366.44888,731.81494C365.94986,731.81494,365.44278,731.911,364.95456,732.11316L364.95444,732.11414L361.3829,733.59344C357.78485,732.1037,357.77728,732.10077,357.77728,732.10077L357.77698,732.1017C357.2993,731.9092,356.80447,731.81775,356.31726,731.81775C354.79504,731.81775,353.3472,732.71027,352.7283,734.2018L352.7282,734.202L351.23938,737.79865L347.67468,739.276L347.6663,739.2797L347.6546,739.2851L347.65405,739.28577C345.70425,740.1197,344.762,742.37054,345.57565,744.3383L345.5757,744.3386L347.05493,747.9074L345.5886,751.4496C344.76883,753.43024,345.69965,755.69836,347.66867,756.53546L347.67038,756.53723L351.17044,757.99207L351.17044,757.99304L344.91522,768.82635C344.6978,769.2029,344.7023,769.6679,344.92694,770.04016C345.14355,770.3991,345.53192,770.6173,345.94897,770.6173C345.9644,770.6173,345.97986,770.617,345.99536,770.6164L351.81177,770.3913L354.52505,775.541C354.72772,775.9257,355.1235,776.1698,355.55823,776.1782C355.56598,776.17834,355.57373,776.17847,355.58145,776.17847C356.00732,776.17847,356.40176,775.9513,356.6153,775.5815L361.3895,767.3124L366.16367,775.5815C366.3772,775.9513,366.77164,776.17847,367.1975,776.17847C367.20523,776.17847,367.21298,776.17834,367.22073,776.1782C367.65546,776.1698,368.05124,775.9257,368.2539,775.541L370.96716,770.3913L376.78357,770.61633C376.799,770.61694,376.81442,770.61725,376.8298,770.61725C377.24692,770.61725,377.6353,770.3991,377.85196,770.0401C378.0766,769.66785,378.08112,769.2028,377.8637,768.8263L371.6039,757.984L371.6039,757.984L375.08945,756.5379L375.09058,756.5374C377.07315,755.7065,378.01233,753.429,377.18835,751.4423L375.72076,747.90063L377.19852,744.33075L377.1986,744.33057C378.01694,742.3488,377.05472,740.07965,375.07562,739.2599L375.0747,739.26056L371.52856,737.79877L370.04105,734.19794L370.04083,734.19745C369.63193,733.21356,368.86124,732.4918,367.9485,732.11395L367.94366,732.113C367.4741,731.918,366.96582,731.81494,366.44888,731.81494 Z"/></g></g><text x="335" y="785" fill="#000000" font-size="8px" font-weight="bold" font-family="'Helvetica Neue', Helvetica, Arial-Unicode, Arial, Sans-serif">Users Award!</text><text x="528" y="806" fill="#000000" font-size="5px" font-weight="400" font-family="'Helvetica Neue', Helvetica, Arial-Unicode, Arial, Sans-serif">from the Noun Project</text></svg>